<?xml version="1.0" encoding="utf-8"?>

<svg  height="auto" width="100%" viewBox="0 -25 309 100" xmlns="http://www.w3.org/2000/svg">
    <path d="M51.2905 21.9365C51.2905 25.8522 48.5546 27.9867 43.5971 27.9867C38.6675 27.9867 35.9431 25.7339 35.2842 20.9735H38.5903C38.9189 23.6782 40.3008 25.2721 43.5199 25.2721C46.826 25.2721 48.1208 23.905 48.1208 22.0646C48.1208 19.8118 46.1227 19.2613 43.1239 18.7109C37.8508 17.7562 35.7295 16.1228 35.7295 12.5226C35.7295 8.47871 38.8088 6.50195 43.4229 6.50195C47.8595 6.50195 50.9093 9.01111 51.3234 13.2998H48.1717C47.8431 10.4078 45.9781 9.21815 43.2323 9.21815C40.2614 9.21815 38.914 10.4768 38.914 12.2564C38.914 14.6768 40.94 15.0613 43.5675 15.6217C49.1544 16.8261 51.2905 18.0766 51.2905 21.9365Z" fill="black"></path>
    <path d="M63.3631 21.5683V21.0754H59.7825C57.6875 21.0754 56.8412 22.0777 56.8412 23.2115C56.8412 24.3913 57.3818 25.5038 59.5459 25.5038C61.71 25.5038 63.3631 23.8606 63.3631 21.5683ZM66.5114 17.8498V27.6974H64.0614L63.3729 24.0725C62.7929 26.6786 60.9821 27.9078 58.6701 27.9078C55.8964 27.9078 53.6929 26.4026 53.6929 23.4514C53.6929 20.7566 55.9161 18.9556 59.1631 18.9556H63.3631V18.1981C63.3631 16.062 62.3213 15.0416 60.1654 15.0416C58.0095 15.0416 56.9004 16.1425 56.9004 17.7955H53.752C53.752 14.4993 56.0525 12.4141 60.2048 12.4141C64.1009 12.4059 66.5114 14.2002 66.5114 17.8498Z" fill="black"></path><path d="M91.4946 17.8104V27.6975H88.3463V18.2327C88.3463 16.3841 87.9043 15.0219 85.4543 15.0366C82.9155 15.0514 82.227 16.6683 82.227 18.4874V27.6892H79.0885V18.2244C79.0885 16.3759 78.6564 15.012 76.2064 15.0284C73.7564 15.0449 73.0202 16.5237 72.9906 18.254V27.6892H69.8423V12.9991H72.5174L72.8756 16.2263C73.1205 14.4352 74.4005 12.4092 77.5768 12.4092C80.4212 12.4092 81.7489 13.7237 82.1022 16.1672C82.3684 14.3974 83.6763 12.4092 86.8148 12.4092C90.2738 12.4059 91.4946 14.2989 91.4946 17.8104Z" fill="black"></path><path d="M100.404 11.4349V12.9992H105.214V15.6563H100.404V27.9917H97.2657V15.6563H93.4863V12.9992H97.2657V10.7464C97.2657 8.43607 98.4061 6.80273 101.308 6.80273H105.214V9.45813H102.184C100.81 9.45813 100.404 10.1056 100.404 11.4349Z" fill="black"></path><path d="M120.65 12.9994V27.6977H118.209L117.629 24.247C117.275 26.3043 115.554 28.1907 112.593 28.1907C109.109 28.1907 107.417 26.3832 107.417 22.8191V12.9994H110.565V22.3952C110.565 24.2437 111.421 25.5534 113.832 25.5534C116.321 25.5534 117.501 24.0482 117.501 22.198V12.9961L120.65 12.9994Z" fill="black"></path><path d="M137.277 17.8104V27.6975H134.139V18.2327C134.139 16.3841 133.317 15.0219 130.874 15.0366C128.384 15.0514 127.185 16.5911 127.155 18.3608V27.6975H124.007V12.9991H126.682L127.047 16.2559C127.333 14.4484 128.984 12.4092 132.192 12.4092C135.614 12.4059 137.277 14.2989 137.277 17.8104Z" fill="black"></path><path d="M153.869 17.8104V27.6975H150.73V18.2327C150.73 16.3841 149.909 15.0219 147.464 15.0366C144.976 15.0514 143.775 16.5911 143.745 18.3608V27.6975H140.597V12.9991H143.273L143.637 16.2559C143.923 14.4484 145.576 12.4092 148.781 12.4092C152.206 12.4059 153.869 14.2989 153.869 17.8104Z" fill="black"></path><path d="M162.819 28.0165C159.219 28.0165 156.641 26.6001 156.345 22.8816H159.355C159.483 24.4262 160.458 25.606 162.819 25.606C165.003 25.606 166.007 24.8797 165.997 23.5109C165.987 22.1142 164.847 21.7806 162.503 21.3665C158.53 20.6583 156.66 19.5377 156.66 16.8313C156.66 13.8999 158.893 12.375 162.849 12.375C165.997 12.375 168.652 14.1464 168.8 17.3917H165.898C165.701 15.76 164.727 14.8053 162.71 14.8053C161.097 14.8053 159.671 15.2374 159.671 16.5964C159.671 17.9553 160.714 18.2576 162.849 18.6421C167.088 19.4194 168.928 20.3034 168.948 23.1971C168.969 26.5459 166.114 28.0165 162.819 28.0165Z" fill="black"></path><path d="M182.312 20.2112C182.312 17.3487 181.101 15.0171 178.357 15.0171C176.114 15.0171 174.885 16.5912 174.52 18.7159L174.421 19.6887C174.405 19.8623 174.398 20.0368 174.402 20.2112C174.402 23.0539 175.613 25.3856 178.357 25.3856C181.101 25.3856 182.312 23.0539 182.312 20.2112ZM185.508 20.2112C185.508 24.8351 183.043 28.0213 179.527 28.0213C176.763 28.0213 175.347 26.4471 174.688 24.3323L174.283 27.6976H171.654V6.80273H174.803V15.7253C175.501 13.7962 176.917 12.3797 179.524 12.3797C183.04 12.3797 185.508 15.5872 185.508 20.2112Z" fill="black"></path><path d="M190.834 18.7256H198.644C198.34 16.3446 197.218 15.0169 194.876 15.0169C192.574 15.0169 191.217 16.4531 190.834 18.7256ZM201.843 20.8799H190.725C190.913 23.4367 192.204 25.3855 194.778 25.3855C197.326 25.3855 197.965 24.135 198.228 22.7564H201.651C201.061 26.0921 198.868 28.0146 194.804 28.0146C190.249 28.0146 187.613 24.8482 187.613 20.2045C187.613 15.5608 190.535 12.373 194.932 12.373C199.152 12.373 201.799 15.4031 201.833 20.1651L201.843 20.8799Z" fill="black"></path><path d="M215.056 20.2112C215.061 19.978 215.052 19.7447 215.027 19.5128L214.938 18.7553C214.595 16.5912 213.413 15.0171 211.101 15.0171C208.337 15.0171 207.148 17.3175 207.148 20.2112C207.148 23.1048 208.337 25.3872 211.101 25.3872C213.865 25.3872 215.056 23.1032 215.056 20.2112ZM217.8 6.80273V27.6976H215.135L214.751 24.1171C214.141 26.3304 212.794 28.0213 209.961 28.0213C206.242 28.0213 203.979 24.8548 203.979 20.2112C203.979 15.5675 206.242 12.3797 209.961 12.3797C212.646 12.3797 214.013 13.9243 214.654 15.98V6.80273H217.8Z" fill="black"></path><path d="M229.041 12.942V15.6927H227.684C225.451 15.6927 224.34 17.5002 224.31 19.7349V27.7044H221.162V12.9995H223.837L224.166 16.7575C224.33 14.9499 224.904 12.8828 228.139 12.8828C228.432 12.8828 228.727 12.9107 229.041 12.942Z" fill="black"></path><path d="M234.377 12.9995H231.229V27.6962H234.377V12.9995Z" fill="black"></path><path d="M234.377 6.90137H231.258V10.1861H234.377V6.90137Z" fill="black"></path><path d="M243.327 11.4349V12.9992H248.138V15.6563H243.327V27.9917H240.189V15.6563H236.409V12.9992H240.189V10.7464C240.189 8.43607 241.339 6.80273 244.232 6.80273H248.138V9.45813H245.108C243.73 9.45813 243.327 10.1056 243.327 11.4349Z" fill="black"></path><path d="M255.988 23.1428C255.988 24.4902 256.422 25.0407 257.769 25.0407H260.21V27.6977H256.894C253.992 27.6977 252.851 26.0644 252.851 23.754V15.6564H249.457V12.9993H252.958L253.647 9.10498H255.988V12.9993H260.21V15.6564H255.988V23.1428Z" fill="black"></path><path d="M265.032 18.7256H272.852C272.547 16.3446 271.426 15.0169 269.084 15.0169C266.772 15.0169 265.417 16.4531 265.032 18.7256ZM276.042 20.8799H264.926C265.113 23.4367 266.404 25.3855 268.979 25.3855C271.528 25.3855 272.167 24.135 272.43 22.7564H275.854C275.263 26.0921 273.061 28.0146 269.007 28.0146C264.452 28.0146 261.815 24.8482 261.815 20.2045C261.815 15.5608 264.738 12.373 269.135 12.373C273.355 12.373 276.002 15.4031 276.037 20.1651L276.042 20.8799Z" fill="black"></path><path d="M292.045 17.8104V27.6975H288.906V18.2327C288.906 16.3841 288.084 15.0219 285.639 15.0366C283.152 15.0514 281.95 16.5911 281.921 18.3608V27.6975H278.768V12.9991H281.444L281.807 16.2559C282.093 14.4484 283.746 12.4092 286.952 12.4092C290.382 12.4059 292.045 14.2989 292.045 17.8104Z" fill="black"></path><path d="M297.916 18.7259H305.726C305.422 16.3449 304.3 15.0172 301.958 15.0172C299.658 15.0172 298.299 16.4534 297.916 18.7259ZM308.925 20.8801H297.809C297.996 23.4369 299.288 25.3857 301.863 25.3857C304.41 25.3857 305.049 24.1353 305.313 22.7566H308.736C308.146 26.0923 305.953 28.0149 301.891 28.0149C297.336 28.0165 294.707 24.855 294.707 20.2113C294.707 15.5677 297.628 12.3799 302.025 12.3799C306.247 12.3799 308.892 15.4099 308.927 20.1719L308.925 20.8801Z" fill="black"></path><path d="M22.4575 0H7.48639L0 12.9566L5.84976 23.0803L24.0941 2.83286L22.4575 0Z" fill="#FF5F19"></path><path d="M2.42188 32.1672L4.05849 35H19.0313L26.516 22.0435L20.6679 11.9214L2.42188 32.1672Z" fill="#FF5F19"></path>
</svg>